<svg width="506" height="230" viewBox="0 0 506 230" fill="none" xmlns="http://www.w3.org/2000/svg">
<rect width="506" height="230" rx="115" fill="url(#paint0_linear_313_5)"/>
<path d="M127.381 133.896C127.381 135.006 127.189 136.072 126.805 137.096C126.421 138.12 125.888 139.038 125.205 139.848C124.523 140.616 123.712 141.235 122.773 141.704C121.835 142.174 120.811 142.408 119.701 142.408H65.9414V127.048H112.021V124.488H65.9414V99.7202C65.9414 98.6535 66.1334 97.6082 66.5174 96.5842C66.9014 95.5602 67.4347 94.6642 68.1174 93.8962C68.8001 93.0855 69.6107 92.4455 70.5494 91.9762C71.4881 91.4642 72.5121 91.2082 73.6214 91.2082H127.381V106.568H81.3014V109.128H127.381V133.896ZM147.801 142.408H132.441V91.2082H147.801V142.408ZM219.564 142.408H160.684V141.96C159.575 141.875 158.551 141.598 157.612 141.128C156.716 140.659 155.905 140.04 155.18 139.272C154.497 138.504 153.964 137.63 153.58 136.648C153.196 135.624 153.004 134.558 153.004 133.448V99.7202C153.004 98.5682 153.217 97.4802 153.644 96.4562C154.071 95.4322 154.647 94.5362 155.372 93.7682C156.097 92.9575 156.972 92.3389 157.996 91.9122C159.02 91.4429 160.108 91.2082 161.26 91.2082H210.476V106.568H169.516V127.048H189.868L183.724 116.808H204.204L219.564 142.408ZM277.949 142.408H257.469L236.989 113.16V127.048H242.109L252.349 142.408H221.629V91.2082H242.109L262.589 120.456V91.2082H277.949V142.408ZM371.449 134.728C371.449 135.838 371.193 136.862 370.681 137.8C370.212 138.739 369.572 139.55 368.761 140.232C367.993 140.915 367.097 141.448 366.073 141.832C365.049 142.216 364.004 142.408 362.937 142.408H323.641C322.532 142.408 321.465 142.216 320.441 141.832C319.417 141.448 318.5 140.915 317.689 140.232C316.921 139.55 316.302 138.739 315.833 137.8C315.364 136.862 315.129 135.838 315.129 134.728V91.2082H330.489V127.048H356.089V91.2082H371.449V134.728ZM432.949 115.976C432.949 117.086 432.757 118.152 432.373 119.176C431.989 120.2 431.456 121.118 430.773 121.928C430.09 122.696 429.28 123.315 428.341 123.784C427.402 124.254 426.378 124.488 425.269 124.488H391.989V142.408H376.629V91.2082H425.269C426.25 91.2082 427.189 91.4215 428.085 91.8482C429.024 92.2749 429.856 92.8509 430.581 93.5762C431.306 94.3015 431.882 95.1335 432.309 96.0722C432.736 96.9682 432.949 97.9069 432.949 98.8882V115.976ZM417.589 109.128V106.568H391.989V109.128H417.589Z" fill="#F8ECEC"/>
<defs>
<linearGradient id="paint0_linear_313_5" x1="0" y1="0" x2="866.484" y2="423.873" gradientUnits="userSpaceOnUse">
<stop stop-color="#FF00E5"/>
<stop offset="1" stop-color="#FF000F"/>
</linearGradient>
</defs>
</svg>
